# xmcd
#
# Track frame offsets: 
#        150
#        17369
#        32211
#        54485
#        67332
#        83954
#        99348
#        117718
#        131971
#        143135
#        161983
#        174777
#        198269
#        216368
#        229151
#        250134
#
# Disc length: 3489 seconds
#
# Revision: 2
# Processed by: cddbd v1.5.2PL0 Copyright (c) Steve Scherf et al.
# Submitted via: ExactAudioCopyFreeDBPlugin 1.0
#
DISCID=ea0d9f10
DTITLE=Chris Ledoux - The Ultimate CD and DVD Collection
DYEAR=2008
DGENRE=Country
TTITLE0=Life Is A Highway
TTITLE1=Horsepower
TTITLE2=Tougher Than The Rest
TTITLE3=Cadillac Ranch
TTITLE4=Five Dollar Fine
TTITLE5=For Your Love
TTITLE6=Honky Tonk World
TTITLE7=Look At You Girl
TTITLE8=Under This Old Hat
TTITLE9=This Cowboy's Hat
TTITLE10=He Rides The Wild Horses
TTITLE11=Stampede
TTITLE12=Silence On The Line
TTITLE13=Workin' Man's Dollar
TTITLE14=Bang A Drum - With Jon Bon Jovi
TTITLE15=Watcha Gonna Do With A Cowboy - With Garth Brooks
EXTD=YEAR: 2008
EXTT0=
EXTT1=
EXTT2=
EXTT3=
EXTT4=
EXTT5=
EXTT6=
EXTT7=
EXTT8=
EXTT9=
EXTT10=
EXTT11=
EXTT12=
EXTT13=
EXTT14=
EXTT15=
PLAYORDER=
